<svg xmlns="http://www.w3.org/2000/svg" version="1.1" xmlns:xlink="http://www.w3.org/1999/xlink" xmlns:svgjs="http://svgjs.dev/svgjs" width="2000" height="1247" viewBox="0 0 2000 1247"><g transform="matrix(1,0,0,1,-1.2121212121212466,0.504858299595071)"><svg viewBox="0 0 396 247" data-background-color="#c8c8c8" preserveAspectRatio="xMidYMid meet" height="1247" width="2000" xmlns="http://www.w3.org/2000/svg" xmlns:xlink="http://www.w3.org/1999/xlink"><g id="tight-bounds" transform="matrix(1,0,0,1,0.2400000000000091,-0.09999999999999432)"><svg viewBox="0 0 395.52 247.2" height="247.2" width="395.52"><g><svg></svg></g><g><svg viewBox="0 0 395.52 247.2" height="247.2" width="395.52"><g><path d="M55.039 247.2l26.403-45.732 2.96 0-24.842 43.028h276.4l-24.842-43.028 2.96 0 26.403 45.732zM197.76 0l26.403 45.732-2.959 0-23.444-40.606-23.444 40.606-2.959 0z" fill="#ffffff" fill-rule="nonzero" stroke="none" stroke-width="1" stroke-linecap="butt" stroke-linejoin="miter" stroke-miterlimit="10" stroke-dasharray="" stroke-dashoffset="0" font-family="none" font-weight="none" font-size="none" text-anchor="none" style="mix-blend-mode: normal" data-fill-palette-color="tertiary"></path></g><g transform="matrix(1,0,0,1,0.7633734387249262,67.97999999999999)"><svg viewBox="0 0 393.99325312255013 111.24" height="111.24" width="393.99325312255013"><g><svg viewBox="0 0 571.8521906794389 161.4566675622596" height="111.24" width="393.99325312255013"><g transform="matrix(1,0,0,1,176.33219067943887,22.314199351947607)"><svg viewBox="0 0 395.52 116.8282688583644" height="116.8282688583644" width="395.52"><g id="textblocktransform"><svg viewBox="0 0 395.52 116.8282688583644" height="116.8282688583644" width="395.52" id="textblock"><g><svg viewBox="0 0 395.52 63.01158574856932" height="63.01158574856932" width="395.52"><g transform="matrix(1,0,0,1,0,0)"><svg width="395.52" viewBox="5.35 -42.3 270.83 43.15" height="63.01158574856932" data-palette-color="#000000"><path d="M25.2-19.25Q32-17.05 32-10.25L32-10.25Q32-5.05 28.88-2.53 25.75 0 18.45 0L18.45 0 5.35 0 5.35-37.9 18.45-37.9Q25.1-37.9 27.8-35.4 30.5-32.9 30.5-27.75L30.5-27.75Q30.5-24.7 29.23-22.58 27.95-20.45 25.2-19.25L25.2-19.25ZM10.2-33.8L10.2-21.05 18.45-21.05Q25.5-21.05 25.55-27.4L25.55-27.4Q25.55-30.9 24-32.35 22.45-33.8 18.45-33.8L18.45-33.8 10.2-33.8ZM27.05-10.55Q27.05-13.9 24.88-15.43 22.7-16.95 18.45-16.95L18.45-16.95 10.2-16.95 10.2-4.1 18.45-4.1Q23.15-4.1 25.1-5.65 27.05-7.2 27.05-10.55L27.05-10.55ZM39.95-32.85L39.95-40.4 44.65-40.4 44.65-32.85 39.95-32.85ZM39.95 0L39.95-27.65 44.65-27.65 44.65 0 39.95 0ZM66.35-28.45Q71.95-28.45 75.27-24.7 78.6-20.95 78.6-13.8L78.6-13.8Q78.6-6.65 75.27-2.9 71.95 0.85 66.35 0.85L66.35 0.85Q62.3 0.85 58.35-2.5L58.35-2.5 58.35 0 53.65 0 53.65-42.3 58.35-42.3 58.35-25.05Q62.35-28.45 66.35-28.45L66.35-28.45ZM65.7-3.5Q69.65-3.5 71.7-6.13 73.75-8.75 73.75-13.8L73.75-13.8Q73.75-18.85 71.7-21.45 69.65-24.05 65.7-24.05L65.7-24.05Q61.95-24.05 58.35-20.95L58.35-20.95 58.35-6.6Q62.05-3.5 65.7-3.5L65.7-3.5ZM89.14-13.45Q89.24-8.85 91.44-6.1 93.64-3.35 98.44-3.35L98.44-3.35Q102.09-3.35 106.44-5.4L106.44-5.4 107.89-1.5Q103.34 0.85 98.04 0.85L98.04 0.85Q93.64 0.85 90.54-1 87.44-2.85 85.84-6.15 84.24-9.45 84.24-13.85L84.24-13.85Q84.24-18.5 85.92-21.78 87.59-25.05 90.44-26.75 93.29-28.45 96.84-28.45L96.84-28.45Q102.29-28.45 105.39-25.05 108.49-21.65 108.49-15.3L108.49-15.3 108.49-13.45 89.14-13.45ZM96.84-24.25Q90.64-24.25 89.44-17.4L89.44-17.4 103.54-17.4Q103.29-20.9 101.64-22.58 99.99-24.25 96.84-24.25L96.84-24.25ZM132.99 0L122.89-12.75 119.89-9.7 119.89 0 115.19 0 115.19-42.3 119.89-42.3 119.89-15.65 131.19-27.3 137.09-27.3 126.09-16 138.69 0 132.99 0ZM150.09-4.35L165.94-4.35 165.94 0 145.24 0 145.24-37.9 150.09-37.9 150.09-4.35ZM190.69-27.65L195.39-27.65 195.39 0 190.69 0 190.69-2.95Q186.59 0.6 182.24 0.6L182.24 0.6Q177.14 0.6 174.66-2.1 172.19-4.8 172.19-10.95L172.19-10.95 172.19-27.65 176.89-27.65 176.89-10.95Q176.89-7.05 178.21-5.4 179.54-3.75 182.89-3.75L182.89-3.75Q186.79-3.75 190.69-7.15L190.69-7.15 190.69-27.65ZM204.38-32.85L204.38-40.4 209.08-40.4 209.08-32.85 204.38-32.85ZM204.38 0L204.38-27.65 209.08-27.65 209.08 0 204.38 0ZM230.13-22.95L223.73-22.95 223.73-7.15Q223.73-5.15 224.36-4.42 224.98-3.7 226.68-3.7L226.68-3.7Q228.18-3.7 229.88-4.1L229.88-4.1 229.88 0.15Q227.63 0.65 225.88 0.65L225.88 0.65Q222.08 0.65 220.56-0.9 219.03-2.45 219.03-6.1L219.03-6.1 219.03-22.95 215.43-22.95 215.43-27.3 219.03-27.3 219.03-36.8 223.73-36.8 223.73-27.3 230.13-27.3 230.13-22.95ZM239.93-13.45Q240.03-8.85 242.23-6.1 244.43-3.35 249.23-3.35L249.23-3.35Q252.88-3.35 257.23-5.4L257.23-5.4 258.68-1.5Q254.13 0.85 248.83 0.85L248.83 0.85Q244.43 0.85 241.33-1 238.23-2.85 236.63-6.15 235.03-9.45 235.03-13.85L235.03-13.85Q235.03-18.5 236.7-21.78 238.38-25.05 241.23-26.75 244.08-28.45 247.63-28.45L247.63-28.45Q253.08-28.45 256.18-25.05 259.28-21.65 259.28-15.3L259.28-15.3 259.28-13.45 239.93-13.45ZM247.63-24.25Q241.43-24.25 240.23-17.4L240.23-17.4 254.33-17.4Q254.08-20.9 252.43-22.58 250.78-24.25 247.63-24.25L247.63-24.25ZM273.03 0.65Q269.28 0.65 267.63-0.85 265.98-2.35 265.98-5.9L265.98-5.9 265.98-42.3 270.68-42.3 270.68-7.15Q270.68-5.15 271.3-4.42 271.93-3.7 273.68-3.7L273.68-3.7Q275.08-3.7 276.18-4L276.18-4 276.18 0.3Q274.18 0.65 273.03 0.65L273.03 0.65Z" opacity="1" transform="matrix(1,0,0,1,0,0)" fill="#ffffff" class="wordmark-text-0" data-fill-palette-color="primary" id="text-0"></path></svg></g></svg></g><g transform="matrix(1,0,0,1,0,77.88710886574857)"><svg viewBox="0 0 230.3752641366433 38.94115999261584" height="38.94115999261584" width="230.3752641366433"><g transform="matrix(1,0,0,1,0,0)"><svg width="230.3752641366433" viewBox="1.22 -37.5 281.9 47.66" height="38.94115999261584" data-palette-color="#000000"><path d="M17.9-26.42L22.92-7.59 26.93-26.42 31.2-26.42 24.73 0 21.29 0 16.14-18.9 11.11 0 7.64 0 1.22-26.42 5.47-26.42 9.57-8.06 14.48-26.42 17.9-26.42ZM45.16 0.49L45.16 0.49Q40.23 0.49 37.6-2.45 34.96-5.4 34.91-11.08L34.91-11.08 34.91-14.28Q34.91-20.19 37.49-23.55 40.06-26.9 44.68-26.9L44.68-26.9Q49.31-26.9 51.61-23.95 53.9-21 53.95-14.75L53.95-14.75 53.95-11.91 39.21-11.91 39.21-11.3Q39.21-7.06 40.81-5.13 42.4-3.2 45.41-3.2L45.41-3.2Q47.31-3.2 48.76-3.92 50.22-4.64 51.49-6.2L51.49-6.2 53.73-3.47Q50.93 0.49 45.16 0.49ZM44.68-23.19L44.68-23.19Q41.99-23.19 40.7-21.35 39.4-19.51 39.23-15.63L39.23-15.63 49.63-15.63 49.63-16.21Q49.46-19.97 48.28-21.58 47.09-23.19 44.68-23.19ZM78.27-14.55L78.27-11.94Q78.27-5.76 76.04-2.64 73.82 0.49 69.6 0.49L69.6 0.49Q65.4 0.49 63.3-3.13L63.3-3.13 63.08 0 59.15 0 59.15-37.5 63.45-37.5 63.45-23.51Q65.57-26.9 69.55-26.9L69.55-26.9Q73.9-26.9 76.07-23.83 78.24-20.75 78.27-14.55L78.27-14.55ZM73.97-11.74L73.97-14.4Q73.97-19.09 72.66-21.08 71.36-23.07 68.43-23.07L68.43-23.07Q65.08-23.07 63.45-19.46L63.45-19.46 63.45-6.88Q65.06-3.32 68.48-3.32L68.48-3.32Q71.41-3.32 72.68-5.37 73.95-7.42 73.97-11.74L73.97-11.74ZM94.33-11.69L94.33-14.4Q94.33-20.51 96.61-23.71 98.89-26.9 103.16-26.9L103.16-26.9Q106.95-26.9 109.07-23.83L109.07-23.83 109.07-37.5 113.39-37.5 113.39 0 109.44 0 109.22-2.83Q107.09 0.49 103.14 0.49L103.14 0.49Q99.04 0.49 96.71-2.7 94.37-5.88 94.33-11.69L94.33-11.69ZM98.65-14.58L98.65-11.94Q98.65-7.5 99.97-5.41 101.28-3.32 104.26-3.32L104.26-3.32Q107.49-3.32 109.07-6.57L109.07-6.57 109.07-19.9Q107.41-23.07 104.29-23.07L104.29-23.07Q101.31-23.07 99.99-20.98 98.67-18.9 98.65-14.58L98.65-14.58ZM129.48 0.49L129.48 0.49Q124.55 0.49 121.91-2.45 119.27-5.4 119.23-11.08L119.23-11.08 119.23-14.28Q119.23-20.19 121.8-23.55 124.38-26.9 128.99-26.9L128.99-26.9Q133.63-26.9 135.93-23.95 138.22-21 138.27-14.75L138.27-14.75 138.27-11.91 123.52-11.91 123.52-11.3Q123.52-7.06 125.12-5.13 126.72-3.2 129.72-3.2L129.72-3.2Q131.63-3.2 133.08-3.92 134.53-4.64 135.8-6.2L135.8-6.2 138.05-3.47Q135.24 0.49 129.48 0.49ZM128.99-23.19L128.99-23.19Q126.31-23.19 125.01-21.35 123.72-19.51 123.55-15.63L123.55-15.63 133.95-15.63 133.95-16.21Q133.78-19.97 132.59-21.58 131.41-23.19 128.99-23.19ZM145.42-26.42L150.62-6.57 155.62-26.42 160.02-26.42 152.18 0 148.96 0 141.03-26.42 145.42-26.42ZM173.64 0.49L173.64 0.49Q168.71 0.49 166.07-2.45 163.43-5.4 163.39-11.08L163.39-11.08 163.39-14.28Q163.39-20.19 165.96-23.55 168.54-26.9 173.15-26.9L173.15-26.9Q177.79-26.9 180.09-23.95 182.38-21 182.43-14.75L182.43-14.75 182.43-11.91 167.68-11.91 167.68-11.3Q167.68-7.06 169.28-5.13 170.88-3.2 173.88-3.2L173.88-3.2Q175.79-3.2 177.24-3.92 178.69-4.64 179.96-6.2L179.96-6.2 182.21-3.47Q179.4 0.49 173.64 0.49ZM173.15-23.19L173.15-23.19Q170.47-23.19 169.17-21.35 167.88-19.51 167.71-15.63L167.71-15.63 178.11-15.63 178.11-16.21Q177.94-19.97 176.75-21.58 175.57-23.19 173.15-23.19ZM192.27-37.5L192.27 0 187.94 0 187.94-37.5 192.27-37.5ZM198.15-11.55L198.15-14.43Q198.15-20.19 200.94-23.55 203.74-26.9 208.33-26.9 212.92-26.9 215.71-23.63 218.51-20.36 218.58-14.72L218.58-14.72 218.58-11.94Q218.58-6.2 215.8-2.86 213.01 0.49 208.38 0.49L208.38 0.49Q203.79 0.49 201.02-2.76 198.24-6.01 198.15-11.55L198.15-11.55ZM202.47-14.45L202.47-11.94Q202.47-7.86 204.07-5.53 205.67-3.2 208.38-3.2L208.38-3.2Q214.09-3.2 214.26-11.45L214.26-11.45 214.26-14.43Q214.26-18.48 212.65-20.84 211.04-23.19 208.33-23.19L208.33-23.19Q205.67-23.19 204.07-20.84 202.47-18.48 202.47-14.45L202.47-14.45ZM243.24-14.82L243.24-11.94Q243.24-5.66 240.98-2.59 238.72 0.49 234.59 0.49L234.59 0.49Q230.61 0.49 228.47-2.51L228.47-2.51 228.47 10.16 224.17 10.16 224.17-26.42 228.08-26.42 228.3-23.49Q230.47-26.9 234.52-26.9L234.52-26.9Q238.87-26.9 241.02-23.88 243.16-20.85 243.24-14.82L243.24-14.82ZM238.94-11.77L238.94-14.4Q238.94-18.85 237.57-20.96 236.21-23.07 233.18-23.07L233.18-23.07Q230.08-23.07 228.47-19.97L228.47-19.97 228.47-6.23Q230.05-3.2 233.23-3.2L233.23-3.2Q236.16-3.2 237.54-5.31 238.92-7.42 238.94-11.77L238.94-11.77ZM258.25 0.49L258.25 0.49Q253.32 0.49 250.68-2.45 248.04-5.4 247.99-11.08L247.99-11.08 247.99-14.28Q247.99-20.19 250.57-23.55 253.15-26.9 257.76-26.9L257.76-26.9Q262.4-26.9 264.69-23.95 266.99-21 267.04-14.75L267.04-14.75 267.04-11.91 252.29-11.91 252.29-11.3Q252.29-7.06 253.89-5.13 255.49-3.2 258.49-3.2L258.49-3.2Q260.4-3.2 261.85-3.92 263.3-4.64 264.57-6.2L264.57-6.2 266.82-3.47Q264.01 0.49 258.25 0.49ZM257.76-23.19L257.76-23.19Q255.08-23.19 253.78-21.35 252.49-19.51 252.32-15.63L252.32-15.63 262.72-15.63 262.72-16.21Q262.55-19.97 261.36-21.58 260.18-23.19 257.76-23.19ZM283.1-26.56L283.12-22.36Q282.22-22.53 281.17-22.53L281.17-22.53Q277.85-22.53 276.53-18.9L276.53-18.9 276.53 0 272.21 0 272.21-26.42 276.41-26.42 276.48-23.73Q278.22-26.9 281.39-26.9L281.39-26.9Q282.42-26.9 283.1-26.56L283.1-26.56Z" opacity="1" transform="matrix(1,0,0,1,0,0)" fill="#ffffff" class="slogan-text-1" data-fill-palette-color="secondary" id="text-1"></path></svg></g></svg></g></svg></g></svg></g><g><svg viewBox="0 0 161.4566675622596 161.4566675622596" height="161.4566675622596" width="161.4566675622596"><g><svg xmlns="http://www.w3.org/2000/svg" xmlns:xlink="http://www.w3.org/1999/xlink" version="1.1" x="0" y="0" viewBox="5 5 90 90" enable-background="new 0 0 100 100" xml:space="preserve" height="161.4566675622596" width="161.4566675622596" class="icon-icon-0" data-fill-palette-color="accent" id="icon-0"><path d="M50 5C25.1 5 5 25.1 5 50c0 24.8 20.1 45 45 45 24.9 0 45-20.2 45-45C95 25.1 74.9 5 50 5L50 5zM50 77c-14.9 0-27-12.1-27-27 0-14.9 12.1-27 27-27 14.9 0 27 12.1 27 27C77 64.9 64.9 77 50 77L50 77zM40.3 30.7C34 33.9 29.5 40 28.6 47.3h8C36.8 40.7 38.2 35 40.3 30.7L40.3 30.7zM50 70.7c3.1 0 7.3-6.8 8-18H42C42.7 63.9 46.9 70.7 50 70.7L50 70.7zM28.6 52.7c1 7.5 5.7 13.8 12.4 16.9-2.4-4.2-4-10-4.4-16.9H28.6zM59.7 30.7c2.1 4.3 3.5 10 3.8 16.6h7.9C70.5 40 66 33.9 59.7 30.7L59.7 30.7zM50 28.4c-3.2 0-7.5 7.1-8 18.9H58C57.5 35.5 53.2 28.4 50 28.4L50 28.4zM59 69.5c6.6-3.1 11.4-9.3 12.4-16.9h-8C63 59.5 61.5 65.4 59 69.5z" fill="#ffffff" data-fill-palette-color="accent"></path></svg></g></svg></g></svg></g></svg></g></svg></g><defs></defs></svg><rect width="395.52" height="247.2" fill="none" stroke="none" visibility="hidden"></rect></g></svg></g></svg>